{"title":"Get Smart's Bruce and Lloyd Out of Control 2008 BRRIP 720p ESUB ","uid":10146573,"size":600222899,"categoryP":"video","categoryS":"movies","magnet":"?xt=urn:btih:943d549878248b1902dd04044b34eca124679c58&amp;dn=Get+Smart%27s+Bruce+and+Lloyd+Out+of+Control+2008+BRRIP+720p+ESUB+&amp;tr=udp%3A%2F%2Ftracker.openbittorrent.com%3A80&amp;tr=udp%3A%2F%2Fopen.demonii.com%3A1337&amp;tr=udp%3A%2F%2Ftracker.coppersurfer.tk%3A6969&amp;tr=udp%3A%2F%2Fexodus.desync.com%3A6969","seeders":1,"leechers":0,"uploader":"jatt13","files":1,"time":1400062451,"description":"Video\nID                             : 1\nFormat                         : AVC\nFormat/Info                    : Advanced Video Codec\nFormat profile                 : &lt;a class=&quot;__cf_email__&quot; href=&quot;/cdn-cgi/l/email-protection&quot; data-cfemail=&quot;d09db1b9be909ce4fee0&quot;&gt;[email&amp;#160;protected]&lt;/a&gt;&lt;script cf-hash='f9e31' type=&quot;text/javascript&quot;&gt;\n/* &lt;![CDATA[ */!function(){try{var t=&quot;currentScript&quot;in document?document.currentScript:function(){for(var t=document.getElementsByTagName(&quot;script&quot;),e=t.length;e--;)if(t[e].getAttribute(&quot;cf-hash&quot;))return t[e]}();if(t&amp;&amp;t.previousSibling){var e,r,n,i,c=t.previousSibling,a=c.getAttribute(&quot;data-cfemail&quot;);if(a){for(e=&quot;&quot;,r=parseInt(a.substr(0,2),16),n=2;a.length-n;n+=2)i=parseInt(a.substr(n,2),16)^r,e+=String.fromCharCode(i);e=document.createTextNode(e),c.parentNode.replaceChild(e,c)}}}catch(u){}}();/* ]]&gt; */&lt;/script&gt;\nFormat settings, CABAC         : Yes\nFormat settings, ReFrames      : 4 frames\nCodec ID                       : V_MPEG4/ISO/AVC\nDuration                       : 1h 11mn\nBit rate                       : 970 Kbps\nWidth                          : 1 280 pixels\nHeight                         : 720 pixels\nDisplay aspect ratio           : 16:9\nFrame rate mode                : Constant\nFrame rate                     : 23.976 fps\nColor space                    : YUV\nChroma subsampling             : 4:2:0\nBit depth                      : 8 bits\nScan type                      : Progressive\nBits/(Pixel*Frame)             : 0.044\nStream size                    : 487 MiB (85%)\nTitle                          : GOPI SAHI\nWriting library                : x264 core 130 r2273 b3065e6\nEncoding settings              : cabac=1 / ref=1 / deblock=1:0:0 / analyse=0x1:0x111 /\nLanguage                       : English\nDefault                        : Yes\nForced                         : No\nColor primaries                : BT.709\nTransfer characteristics       : BT.709\nMatrix coefficients            : BT.709\n\nAudio #1\nID                             : 2\nFormat                         : MPEG Audio\nFormat version                 : Version 1\nFormat profile                 : Layer 3\nMode                           : Joint stereo\nCodec ID                       : A_MPEG/L3\nCodec ID/Hint                  : MP3\nDuration                       : 1h 11mn\nBit rate mode                  : Constant\nBit rate                       : 64.0 Kbps\nChannel count                  : 2 channels\nSampling rate                  : 48.0 KHz\nCompression mode               : Lossy\nStream size                    : 32.8 MiB (6%)\nTitle                          : GOPI SAHI\nLanguage                       : English\nDefault                        : No\nForced                         : No\n\nAudio #2\nID                             : 4\nFormat                         : MPEG Audio\nFormat version                 : Version 1\nFormat profile                 : Layer 3\nMode                           : Joint stereo\nMode extension                 : MS Stereo\nCodec ID                       : A_MPEG/L3\nCodec ID/Hint                  : MP3\nDuration                       : 1h 11mn\nBit rate mode                  : Constant\nBit rate                       : 80.0 Kbps\nChannel count                  : 2 channels\nSampling rate                  : 48.0 KHz\nCompression mode               : Lossy\nStream size                    : 41.0 MiB (7%)\nTitle                          : GOPI SAHI\nWriting library                : LAME3.96.1\nLanguage                       : Hindi\nDefault                        : Yes\nForced                         : No\n[IMG]http://i.imgur.com/3ttf9sr.jpg[/IMG]\n[IMG]http://i.imgur.com/S2XrgTq.jpg[/IMG]\n[IMG]http://i.imgur.com/EZtaDO3.jpg[/IMG]\n[IMG]http://i.imgur.com/P8yYuAE.jpg[/IMG]\n[IMG]http://i.imgur.com/bqUYID4.jpg[/IMG]","torrent":{"xt":"urn:btih:943d549878248b1902dd04044b34eca124679c58","amp;dn":"Get+Smart%27s+Bruce+and+Lloyd+Out+of+Control+2008+BRRIP+720p+ESUB+","amp;tr":["udp%3A%2F%2Ftracker.openbittorrent.com%3A80","udp%3A%2F%2Fopen.demonii.com%3A1337","udp%3A%2F%2Ftracker.coppersurfer.tk%3A6969","udp%3A%2F%2Fexodus.desync.com%3A6969"],"infoHash":"943d549878248b1902dd04044b34eca124679c58","infoHashBuffer":{"type":"Buffer","data":[148,61,84,152,120,36,139,25,2,221,4,4,75,52,236,161,36,103,156,88]},"announce":[],"urlList":[]}}